HIERARCHY
ROOT Hips
{
	OFFSET 0.000000 0.000000 0.000000
	CHANNELS 6 Xposition Yposition Zposition Zrotation Yrotation Xrotation 
	JOINT LHipJoint
	{
		OFFSET 0.000000 0.000000 0.000000
		CHANNELS 3 Zrotation Yrotation Xrotation
		JOINT LeftUpLeg
		{
			OFFSET 1.363060 -1.794630 0.839290
			CHANNELS 3 Zrotation Yrotation Xrotation
			JOINT LeftLeg
			{
				OFFSET 2.448110 -6.726130 0.000000
				CHANNELS 3 Zrotation Yrotation Xrotation
				JOINT LeftFoot
				{
					OFFSET 2.562200 -7.039590 0.000000
					CHANNELS 3 Zrotation Yrotation Xrotation
					JOINT LeftToeBase
					{
						OFFSET 0.157640 -0.433110 2.322550
						CHANNELS 3 Zrotation Yrotation Xrotation
						End Site
						{
							OFFSET 0.000000 0.000000 0.000000
						}
					}
				}
			}
		}
	}
	JOINT RHipJoint
	{
		OFFSET 0.000000 0.000000 0.000000
		CHANNELS 3 Zrotation Yrotation Xrotation
		JOINT RightUpLeg
		{
			OFFSET -1.305520 -1.794630 0.839290
			CHANNELS 3 Zrotation Yrotation Xrotation
			JOINT RightLeg
			{
				OFFSET -2.542530 -6.985550 0.000000
				CHANNELS 3 Zrotation Yrotation Xrotation
				JOINT RightFoot
				{
					OFFSET -2.568260 -7.056230 0.000000
					CHANNELS 3 Zrotation Yrotation Xrotation
					JOINT RightToeBase
					{
						OFFSET -0.164730 -0.452590 2.363150
						CHANNELS 3 Zrotation Yrotation Xrotation
						End Site
						{
							OFFSET 0.000000 0.000000 0.000000
						}
					}
				}
			}
		}
	}
}
MOTION
Frames: 27
Frame Time: 0.008333
3.697447 16.255718 -3.277471 -163.138393 70.373096 -160.631647 -10.836781 2.331580 -0.468559 -18.050244 10.013387 -7.856461 -2.459529 0.559985 28.826694 3.545125 12.452453 -32.287058 173.722300 -0.000000 -0.561801 9.490000 0.430035 -0.632501 -0.678724 -13.020580 -30.073827 1.281729 -2.052688 36.733539 -3.164114 -14.691664 -11.551283 0.460001 -0.000000 -45.111300
3.915763 16.327580 -3.377777 -163.264700 69.580369 -160.789493 -10.959601 2.476206 -0.298921 -17.290253 9.845597 -5.796335 -2.417670 0.446746 26.629350 3.281623 11.704544 -30.500712 -5.538800 0.000000 -1.799900 9.317926 0.426076 -0.643525 0.442801 -13.333301 -30.258499 1.461345 -1.849448 34.506217 -3.137923 -14.382649 -11.387717 0.383500 0.000000 -46.008000
4.136563 16.404742 -3.478941 -163.367642 68.730527 -160.938449 -11.100637 2.638331 -0.111498 -16.468243 9.624273 -3.831790 -2.348343 0.366697 24.577507 3.012395 11.045068 -28.455189 -4.804400 0.000000 -4.687101 9.140831 0.393423 -0.655558 1.618443 -13.651942 -30.307125 1.662006 -1.630809 32.161231 -3.060406 -13.850844 -11.147419 0.290600 0.000000 -47.480800
4.359691 16.486528 -3.580450 -163.473656 67.827681 -161.097501 -11.253298 2.819571 0.090189 -15.606617 9.355638 -2.011247 -2.253959 0.325916 22.734772 2.743893 10.481646 -26.157134 -4.081500 0.000000 -8.215400 8.962949 0.336063 -0.659793 2.823814 -13.961229 -30.230492 1.880424 -1.396541 29.708713 -2.940115 -13.148477 -10.826540 0.184700 0.000000 -49.410700
4.584988 16.572233 -3.681957 -163.600156 66.880999 -161.278076 -11.410570 3.020381 0.301040 -14.726072 9.056565 -0.376709 -2.138408 0.327850 21.151856 2.481298 10.010090 -23.610864 -3.371000 0.000000 -12.493400 8.788422 0.259061 -0.647517 4.037020 -14.243741 -30.040338 2.110876 -1.146120 27.160277 -2.791128 -12.351913 -10.424615 0.069300 0.000000 -51.606000
4.812261 16.661224 -3.783247 -163.754753 65.904598 -161.483674 -11.566490 3.239910 0.514285 -13.841752 8.754470 1.038379 -2.005838 0.373371 19.865229 2.228349 9.616229 -20.813806 -2.670400 0.000000 -17.639100 8.620820 0.167942 -0.610820 5.239541 -14.477982 -29.746093 2.345213 -0.878834 24.529257 -2.631959 -11.556024 -9.946900 -0.052700 0.000000 -53.819800
5.041323 16.752733 -3.884243 -163.938266 64.916561 -161.713326 -11.716397 3.475518 0.721955 -12.964151 8.483324 2.211677 -1.860093 0.460472 18.897191 1.988846 9.279758 -17.767810 -1.979100 0.000000 -23.673800 8.463258 0.068130 -0.543037 6.415234 -14.638925 -29.355550 2.573003 -0.594606 21.833647 -2.483427 -10.865563 -9.400990 -0.181200 -0.000000 -55.841800
5.271853 16.845826 -3.984877 -164.150740 63.938500 -161.967973 -11.855986 3.721877 0.915740 -12.104758 8.273701 3.135195 -1.705099 0.583783 18.258524 1.768858 8.980161 -14.506108 -1.305700 0.000000 -30.333000 8.318894 -0.034843 -0.440240 7.547556 -14.704286 -28.877667 2.782595 -0.295088 19.099596 -2.365230 -10.379322 -8.794761 -0.320000 -0.000001 -57.548800
5.503485 16.939454 -4.085084 -164.390896 62.991998 -162.249642 -11.982024 3.972194 1.087866 -11.274095 8.151808 3.814890 -1.544112 0.735747 17.950095 1.574783 8.697189 -11.077844 -0.664500 -0.000000 -37.181700 8.190543 -0.136106 -0.301966 8.621581 -14.657971 -28.322608 2.962922 0.015713 16.365740 -2.293642 -10.175621 -8.143986 -0.475300 -0.000001 -58.874900
5.735753 17.032439 -4.184771 -164.654181 62.098135 -162.559708 -12.093519 4.219363 1.230348 -10.476366 8.145489 4.265005 -1.378803 0.908268 17.964104 1.411663 8.411678 -7.520401 -0.069300 0.000000 -43.864599 8.079795 -0.231614 -0.130683 9.625922 -14.487106 -27.701556 3.105079 0.331700 13.683476 -2.280730 -10.302663 -7.482809 -0.652199 0.000000 -59.720700
5.967995 17.123446 -4.283896 -164.941203 61.274928 -162.909034 -12.188020 4.455519 1.338002 -9.723779 8.264909 4.517643 -1.211545 1.091814 18.286065 1.285892 8.116114 -3.907096 0.460299 -0.000000 -49.765300 7.989319 -0.317962 0.063108 10.550419 -14.212881 -27.037967 3.204217 0.641762 11.126757 -2.327664 -10.752648 -6.837610 -0.855799 0.000000 -60.183600
6.199565 17.211205 -4.382226 -165.248190 60.537944 -163.304304 -12.266234 4.674195 1.405353 -9.015878 8.526302 4.604576 -1.042759 1.278225 18.892586 1.201487 7.811641 -0.271488 0.914800 0.000000 -54.671000 7.919178 -0.393382 0.268277 11.392851 -13.851136 -26.351376 3.259535 0.934603 8.772878 -2.431382 -11.483640 -6.258418 -1.081200 -0.000000 -60.219400
6.429671 17.294452 -4.479762 -165.568433 59.898637 -163.751307 -12.328825 4.869070 1.429337 -8.353677 8.932983 4.564700 -0.873711 1.459331 19.754250 1.162634 7.517876 3.332177 1.289701 0.000000 -58.351600 7.868755 -0.457545 0.470150 12.155260 -13.434943 -25.664008 3.275234 1.197743 6.699552 -2.579739 -12.409736 -5.785300 -1.315600 -0.000001 -59.896900
6.657635 17.372010 -4.576326 -165.897132 59.364971 -164.254091 -12.377044 5.034524 1.407391 -7.734839 9.483452 4.433276 -0.706829 1.628156 20.840004 1.171451 7.269583 6.841506 1.592800 0.000000 -60.719500 7.836069 -0.511160 0.656706 12.841081 -12.986739 -24.988702 3.258455 1.421580 4.963044 -2.756946 -13.429522 -5.452009 -1.538200 -0.000000 -59.273300
6.882889 17.442848 -4.671763 -166.231620 58.939605 -164.814728 -12.411944 5.166107 1.337652 -7.155859 10.170686 4.239799 -0.546059 1.779685 22.121950 1.226926 7.115742 10.177104 1.846000 -0.000000 -61.760900 7.818783 -0.555617 0.820613 13.450846 -12.515580 -24.326374 3.217736 1.600557 3.588776 -2.945191 -14.441421 -5.273865 -1.726200 0.000000 -58.445500
7.105143 17.505940 -4.765779 -166.577882 58.619218 -165.438767 -12.433471 5.261241 1.218478 -6.614094 10.983139 4.006287 -0.396328 1.911927 23.577937 1.324327 7.115669 13.248651 2.086200 -0.000000 -61.545300 7.815502 -0.592148 0.959042 13.979833 -12.020210 -23.667199 3.161487 1.733303 2.568857 -3.126086 -15.354184 -5.242728 -1.861400 -0.000001 -57.548300
7.324340 17.560389 -4.857975 -166.949473 58.393512 -166.134070 -12.440159 5.319994 1.049834 -6.110439 11.904987 3.744211 -0.262240 2.026219 25.192653 1.455969 7.333802 15.963255 2.361300 -0.000000 -60.215799 7.826437 -0.621797 1.073520 14.418768 -11.494292 -22.998916 3.097170 1.821347 1.873719 -3.282015 -16.091776 -5.331049 -1.934300 0.000000 -56.721900
7.540708 17.605319 -4.948026 -167.364274 58.246414 -166.909160 -12.429891 5.345116 0.833481 -5.647353 12.917132 3.456473 -0.146601 2.126982 26.956366 1.613018 7.830575 18.237870 2.721300 0.000000 -57.986400 7.853092 -0.645466 1.167200 14.758221 -10.936510 -22.311450 3.031497 1.868107 1.459995 -3.396275 -16.591581 -5.496877 -1.945700 -0.000001 -56.093700
7.754606 17.639897 -5.035631 -167.842027 58.156061 -167.775360 -12.400657 5.341354 0.572845 -5.226763 13.995741 3.144543 -0.049704 2.220757 28.859218 1.787611 8.652484 20.009654 3.206800 -0.000000 -55.118801 7.897977 -0.664188 1.240917 14.993049 -10.361398 -21.595374 2.970122 1.877768 1.274082 -3.453470 -16.807747 -5.679363 -1.908900 0.000000 -55.847399
7.966571 17.663463 -5.120581 -168.400448 58.099975 -168.737143 -12.350933 5.314844 0.274944 -4.853218 15.112476 2.798738 0.030255 2.314430 30.894497 1.973778 9.820693 21.235429 3.837000 -0.000000 -51.883500 7.963286 -0.678913 1.297526 15.122316 -9.782995 -20.854536 2.917053 1.854769 1.270501 -3.443691 -16.716134 -5.825935 -1.841200 -0.000000 -56.037501
8.177137 17.675369 -5.202899 -169.048118 58.055186 -169.789490 -12.280925 5.271895 -0.051141 -4.529856 16.235907 2.405308 0.096544 2.414225 33.053709 2.167621 11.322520 21.893580 4.599800 0.000000 -48.517300 8.049944 -0.690634 1.339290 15.151159 -9.216683 -20.099756 2.874449 1.803217 1.412201 -3.363238 -16.317798 -5.890113 -1.761600 -0.000000 -56.608100
8.386743 17.675212 -5.282847 -169.782305 58.000681 -170.918974 -12.192847 5.218239 -0.395577 -4.256659 17.333157 1.952459 0.153003 2.525072 35.323406 2.366740 13.109163 21.984607 5.450700 -0.000001 -45.214800 8.157394 -0.700294 1.366635 15.090757 -8.679236 -19.344469 2.842088 1.726594 1.669121 -3.215513 -15.643520 -5.829269 -1.688301 0.000000 -57.549700
8.595863 17.662678 -5.360887 -170.586609 57.921625 -172.089046 -12.090692 5.159035 -0.745584 -4.035160 18.375682 1.407125 0.203080 2.649607 37.696233 2.568197 15.094204 21.518853 6.312800 -0.000000 -42.055700 8.281867 -0.708618 1.387204 14.957162 -8.158654 -18.628026 2.817461 1.626973 2.049467 -3.015164 -14.752622 -5.647349 -1.625300 0.000000 -58.548900
8.804505 17.637673 -5.437721 -171.428521 57.807089 -173.260763 -11.981235 5.097172 -1.091939 -3.856520 19.335574 0.757514 0.250069 2.789265 40.152161 2.769169 17.170526 20.534564 7.094099 -0.000000 -39.105700 8.417853 -0.716424 1.401952 14.772915 -7.650015 -17.970848 2.795919 1.505775 2.553329 -2.780780 -13.731415 -5.333143 -1.580900 -0.000000 -59.529600
9.012610 17.600305 -5.514188 -172.266556 57.653033 -174.380426 -11.872076 5.034083 -1.424238 -3.712981 20.190682 -0.022004 0.296510 2.943244 42.675325 2.964981 19.218255 19.079897 7.698300 0.000000 -36.335200 8.557203 -0.724076 1.417015 14.563598 -7.125652 -17.415160 2.771854 1.362684 3.221496 -2.537486 -12.676524 -4.927475 -1.549500 -0.000000 -60.211300
9.219740 17.550926 -5.591260 -173.049458 57.460789 -175.393755 -11.772665 4.968580 -1.735449 -3.587313 20.923031 -0.942622 0.344494 3.109476 45.243163 3.150349 21.125250 17.229590 8.047700 -0.000000 -33.771500 8.690055 -0.732166 1.434842 14.360416 -6.559762 -16.988724 2.739306 1.197329 4.088887 -2.310028 -11.693052 -4.464225 -1.531101 -0.000000 -60.526300
9.425276 17.490006 -5.669869 -173.725478 57.238038 -176.248872 -11.692034 4.897613 -2.020531 -3.460119 21.522997 -2.014308 0.395406 3.284951 47.836258 3.318297 22.792457 15.059228 8.088700 0.000000 -31.353900 8.805596 -0.740508 1.457301 14.195159 -5.924297 -16.727866 2.693606 1.007381 5.225188 -2.120467 -10.863340 -4.021675 -1.516700 0.000000 -60.264700
